<?xml version="1.0" encoding="UTF-8"?>
<svg id="Livello_1" data-name="Livello 1" xmlns="http://www.w3.org/2000/svg" xmlns:xlink="http://www.w3.org/1999/xlink" viewBox="0 0 100 31.1">
  <defs>
    <style>
      .cls-1 {
        fill: #05204a;
      }

      .cls-2 {
        fill: url(#Sfumatura_senza_nome_37);
      }
    </style>
    <linearGradient id="Sfumatura_senza_nome_37" data-name="Sfumatura senza nome 37" x1="78.66" y1="15.73" x2="98.77" y2="15.73" gradientUnits="userSpaceOnUse">
      <stop offset="0" stop-color="#ce93db"/>
      <stop offset=".11" stop-color="#c491dc"/>
      <stop offset=".29" stop-color="#ab8de1"/>
      <stop offset=".51" stop-color="#8186e9"/>
      <stop offset=".78" stop-color="#487cf4"/>
      <stop offset=".99" stop-color="#1574ff"/>
    </linearGradient>
  </defs>
  <g>
    <path class="cls-1" d="M86.79,9.79h.1l2.24,5.29s.02.02.03.02h2.09s.04-.03.03-.05l-3.16-7.4s-.02-.02-.03-.02h-2.49s-.03,0-.03.02l-3.17,7.4s0,.05.03.05h2.07s.03,0,.03-.02l2.27-5.29Z"/>
    <path class="cls-1" d="M92.75,23.82h2.22s.04-.03.03-.05l-1.24-2.9s-.02-.02-.03-.02h-2.23s-.04.03-.03.05l1.24,2.9s.02.02.03.02Z"/>
    <path class="cls-2" d="M95.31,8.46l-3.55,8.18c-.11.25-.36.41-.63.41h-8.69c-.55,0-1.04.33-1.26.83l-2.53,5.9s0,.05.03.05h2.08s.03,0,.03-.02l1.94-4.46c.11-.25.36-.41.63-.41h8.7c.55-.01,1.05-.35,1.26-.86l3.38-8.15c.11-.26.36-.42.63-.42h1.39s.03-.02.03-.03v-1.8s-.02-.03-.03-.03h-2.17c-.55,0-1.04.32-1.26.82Z"/>
  </g>
  <rect class="cls-1" x="96.7" y="15.11" width="2.07" height="8.72" rx=".1" ry=".1"/>
  <path class="cls-1" d="M1.23,23.82V7.63h7.26c1.8,0,3.18.44,4.16,1.33.97.89,1.46,2.1,1.46,3.65s-.49,2.75-1.47,3.64c-.98.89-2.36,1.34-4.15,1.34H3.52v6.24H1.23ZM3.52,15.65h4.84c1.13,0,1.99-.27,2.58-.82.59-.55.88-1.29.88-2.22s-.29-1.69-.88-2.23c-.59-.54-1.45-.81-2.58-.81H3.52v6.08Z"/>
  <path class="cls-1" d="M21.21,24.06c-1.24,0-2.32-.26-3.25-.77-.93-.51-1.64-1.24-2.15-2.17-.51-.93-.76-2.03-.76-3.3s.25-2.37.76-3.3c.51-.93,1.22-1.66,2.15-2.17.93-.51,2.01-.77,3.25-.77s2.38.25,3.29.76c.91.51,1.62,1.23,2.12,2.16.5.93.75,2.04.75,3.32s-.25,2.37-.75,3.31c-.5.94-1.21,1.66-2.13,2.17-.92.51-2.01.76-3.28.76ZM21.21,22.1c1.24,0,2.2-.38,2.89-1.13.69-.75,1.03-1.8,1.03-3.15s-.34-2.41-1.03-3.16c-.69-.75-1.65-1.12-2.89-1.12s-2.19.38-2.88,1.13c-.69.75-1.04,1.8-1.04,3.15s.35,2.4,1.04,3.15c.69.75,1.65,1.13,2.88,1.13Z"/>
  <path class="cls-1" d="M30.05,23.82V7.03h2.24v16.79h-2.24Z"/>
  <path class="cls-1" d="M35.76,23.82v-11.99h2.24v11.99h-2.24Z"/>
  <path class="cls-1" d="M44.36,23.82c-.64,0-1.14-.16-1.49-.49-.35-.33-.53-.82-.53-1.47v-8.31h-2.24v-1.72h2.26v-3.6h2.2v3.6h3.14v1.72h-3.12v8.51h3.44v1.76h-3.66Z"/>
  <path class="cls-1" d="M55.59,24.06c-1.24,0-2.32-.26-3.25-.77-.93-.51-1.64-1.24-2.15-2.17-.51-.93-.76-2.03-.76-3.3s.25-2.37.76-3.3c.51-.93,1.22-1.66,2.15-2.17.93-.51,2.01-.77,3.25-.77s2.38.25,3.29.76c.91.51,1.62,1.23,2.12,2.16.5.93.75,2.04.75,3.32s-.25,2.37-.75,3.31c-.5.94-1.21,1.66-2.13,2.17-.92.51-2.01.76-3.28.76ZM55.59,22.1c1.24,0,2.2-.38,2.89-1.13.69-.75,1.03-1.8,1.03-3.15s-.34-2.41-1.03-3.16c-.69-.75-1.65-1.12-2.89-1.12s-2.19.38-2.88,1.13c-.69.75-1.04,1.8-1.04,3.15s.35,2.4,1.04,3.15c.69.75,1.65,1.13,2.88,1.13Z"/>
  <path class="cls-1" d="M65.05,23.82v-9.67h-1.16v-2.32h2.4v2.24h.84c.33-.73.85-1.31,1.55-1.72.7-.41,1.52-.62,2.47-.62h.98v1.92h-1.1c-1.2,0-2.13.35-2.78,1.06-.65.71-.98,1.66-.98,2.86v6.26h-2.22Z"/>
  <rect class="cls-1" x="35.76" y="7.63" width="2.24" height="1.87"/>
</svg>