<?xml version="1.0" encoding="UTF-8"?>
<svg id="Livello_1" data-name="Livello 1" xmlns="http://www.w3.org/2000/svg" xmlns:xlink="http://www.w3.org/1999/xlink" viewBox="0 0 100 31.1">
  <defs>
    <style>
      .cls-1 {
        fill: #05204a;
      }

      .cls-2 {
        fill: url(#Sfumatura_senza_nome_37);
      }

      .cls-3 {
        fill: #f7f7f7;
      }
    </style>
    <linearGradient id="Sfumatura_senza_nome_37" data-name="Sfumatura senza nome 37" x1="71.48" y1="14.91" x2="86.57" y2="14.91" gradientUnits="userSpaceOnUse">
      <stop offset="0" stop-color="#ce93db"/>
      <stop offset=".11" stop-color="#c491dc"/>
      <stop offset=".29" stop-color="#ab8de1"/>
      <stop offset=".51" stop-color="#8186e9"/>
      <stop offset=".78" stop-color="#487cf4"/>
      <stop offset=".99" stop-color="#1574ff"/>
    </linearGradient>
  </defs>
  <rect class="cls-1" x="2.37" y="2.88" width="95.25" height="25.34" rx="12.67" ry="12.67"/>
  <g>
    <g>
      <path class="cls-3" d="M77.58,10.46h.08l1.68,3.97s.01.02.02.02h1.57s.03-.02.02-.04l-2.37-5.55s-.01-.02-.02-.02h-1.87s-.02,0-.02.02l-2.38,5.55s0,.04.02.04h1.55s.02,0,.02-.02l1.7-3.97Z"/>
      <path class="cls-3" d="M82.05,20.98h1.67s.03-.02.02-.04l-.93-2.17s-.01-.02-.02-.02h-1.67s-.03.02-.02.04l.93,2.17s.01.02.02.02Z"/>
      <path class="cls-2" d="M83.97,9.46l-2.66,6.13c-.08.19-.27.31-.47.31h-6.51c-.41,0-.78.25-.94.63l-1.89,4.42s0,.04.02.04h1.56s.02,0,.02-.02l1.45-3.34c.08-.19.27-.31.47-.31h6.53c.42,0,.79-.26.95-.64l2.53-6.11c.08-.19.27-.32.47-.32h1.04s.03-.01.03-.03v-1.35s-.01-.03-.03-.03h-1.63c-.41,0-.78.24-.94.62Z"/>
    </g>
    <rect class="cls-3" x="85.01" y="14.45" width="1.55" height="6.54" rx=".1" ry=".1"/>
    <g>
      <g>
        <path class="cls-3" d="M13.43,20.98v-12.14h5.44c1.35,0,2.39.33,3.12,1,.73.66,1.09,1.58,1.09,2.73s-.37,2.06-1.1,2.73c-.73.67-1.77,1-3.11,1h-3.72v4.68h-1.72ZM15.16,14.85h3.63c.85,0,1.49-.2,1.93-.61.44-.41.66-.96.66-1.66s-.22-1.27-.66-1.67c-.44-.4-1.08-.61-1.93-.61h-3.63v4.56Z"/>
        <path class="cls-3" d="M28.42,21.16c-.93,0-1.74-.19-2.44-.58-.69-.38-1.23-.93-1.61-1.63-.38-.7-.57-1.52-.57-2.47s.19-1.77.57-2.47c.38-.7.92-1.24,1.61-1.63.69-.38,1.51-.58,2.44-.58s1.78.19,2.46.57c.68.38,1.21.92,1.59,1.62.37.7.56,1.53.56,2.49s-.19,1.78-.56,2.48c-.37.7-.91,1.25-1.6,1.63-.69.38-1.51.57-2.46.57ZM28.42,19.69c.93,0,1.65-.28,2.17-.85.51-.56.77-1.35.77-2.36s-.26-1.81-.77-2.37c-.51-.56-1.24-.84-2.17-.84s-1.64.28-2.16.85c-.52.56-.78,1.35-.78,2.36s.26,1.8.78,2.36c.52.56,1.24.85,2.16.85Z"/>
        <path class="cls-3" d="M35.04,20.98v-12.59h1.68v12.59h-1.68Z"/>
        <path class="cls-3" d="M39.33,20.98v-8.99h1.68v8.99h-1.68Z"/>
        <path class="cls-3" d="M45.77,20.98c-.48,0-.85-.12-1.12-.37-.26-.24-.4-.61-.4-1.1v-6.23h-1.68v-1.29h1.69v-2.7h1.65v2.7h2.35v1.29h-2.34v6.38h2.58v1.32h-2.74Z"/>
        <path class="cls-3" d="M54.19,21.16c-.93,0-1.74-.19-2.44-.58-.69-.38-1.23-.93-1.61-1.63-.38-.7-.57-1.52-.57-2.47s.19-1.77.57-2.47c.38-.7.92-1.24,1.61-1.63.69-.38,1.51-.58,2.44-.58s1.78.19,2.46.57c.68.38,1.21.92,1.59,1.62.37.7.56,1.53.56,2.49s-.19,1.78-.56,2.48c-.37.7-.91,1.25-1.6,1.63-.69.38-1.51.57-2.46.57ZM54.19,19.69c.93,0,1.65-.28,2.17-.85.51-.56.77-1.35.77-2.36s-.26-1.81-.77-2.37c-.51-.56-1.24-.84-2.17-.84s-1.64.28-2.16.85c-.52.56-.78,1.35-.78,2.36s.26,1.8.78,2.36c.52.56,1.24.85,2.16.85Z"/>
        <path class="cls-3" d="M61.28,20.98v-7.25h-.87v-1.74h1.8v1.68h.63c.25-.55.64-.98,1.16-1.29.52-.31,1.14-.46,1.85-.46h.73v1.44h-.82c-.9,0-1.59.26-2.08.79-.49.53-.73,1.24-.73,2.14v4.69h-1.66Z"/>
      </g>
      <rect class="cls-3" x="39.33" y="8.84" width="1.68" height="1.4"/>
    </g>
  </g>
</svg>